PathFileType	4	(X/Y/Z)	C:/Users/beibeiliu/ov580/test_trc/User1\sequence.25_training_dense_right.trc
DataRate	CameraRate	NumFrames	NumMarkers	Units	OrigDataRate	OrigDataStartFrame	OrigNumFrames
120	120	8	19	mm	120	152	242
Frame#	Time	ThumbCMC			ThumbMCP			ThumbIP			ThumbTip			IndexMCP			IndexPIP			IndexTip			MiddleMCP			MiddlePIP			MiddleTip			RingMCP			RingPIP			RingTip			PinkyMCP			PinkyPIP			PinkyTip			BackHand1			BackHand2			BackHand3	
		X0	Y0	Z0	X1	Y1	Z1	X2	Y2	Z2	X3	Y3	Z3	X4	Y4	Z4	X5	Y5	Z5	X6	Y6	Z6	X7	Y7	Z7	X8	Y8	Z8	X9	Y9	Z9	X10	Y10	Z10	X11	Y11	Z11	X12	Y12	Z12	X13	Y13	Z13	X14	Y14	Z14	X15	Y15	Z15	X16	Y16	Z16	X17	Y17	Z17	X18	Y18	Z18	
151	1.25833	174.588	-10.5879	41.5251	172.058	-14.2526	3.03638	169.23	-38.9768	-17.0224	155.635	-57.5763	-30.678	203.748	-66.3124	-12.6836	204.931	-80.2248	-31.4301	212.743	-100.86	-51.5658	174.567	-79.8371	-22.1	169.717	-77.6162	-50.6627	162.42	-75.2948	-79.9267	139.948	-69.1716	-19.535	123.944	-39.5628	-22.521	121.62	-22.9583	2.35075	123.385	-76.821	-3.89801	116.013	-46.3586	-7.44516	123.332	-29.0625	19.9742	159.482	-77.9306	43.1613	147.504	-64.5275	78.174	181.137	-49.4811	55.0911	
152	1.26667	171.389	-10.8085	44.7201	173.252	-12.5056	6.21434	174.664	-36.7957	-20.3699	163.099	-56.8821	-31.9152	206.608	-65.4898	-9.34774	214.066	-77.4645	-29.3162	220.787	-95.534	-47.3345	181.114	-78.9031	-25.3338	178.242	-74.9768	-50.8002	167.421	-77.9557	-79.3747	148.845	-71.3908	-15.6238	133.101	-44.1037	-24.0165	126.577	-23.7449	1.65142	132.512	-76.4381	-2.73014	118.088	-47.7391	-5.43601	125.524	-30.6911	16.9457	160.886	-81.0066	46.2269	152.57	-60.1333	77.8277	183.041	-45.2534	58.3623	
153	1.275	171.058	-6.09182	47.8023	175.441	-10.6348	7.27312	178.721	-34.1663	-17.7316	167.45	-53.8127	-32.6929	216.006	-58.6877	-8.84026	221.943	-71.846	-26.5689	228.702	-89.3867	-43.557	190.368	-73.3904	-18.4981	183.651	-73.6296	-50.7836	178.483	-72.371	-80.9683	155.526	-67.5731	-18.1056	134.837	-42.0828	-21.9411	126.197	-25.1842	4.4011	137.712	-76.1178	-4.03095	124.263	-48.9909	-5.68557	131.563	-30.881	19.5997	166.601	-78.2951	45.4094	156.937	-64.6338	76.6121	183.65	-43.9511	60.5053	
154	1.28333	168.278	-4.67552	48.6906	174.059	-7.50924	8.82753	177.262	-28.3643	-14.8369	170.534	-51.1902	-30.8841	218.331	-53.7245	-8.18902	229.198	-63.4066	-26.0157	236.335	-80.5515	-43.5048	194.07	-68.8242	-19.7536	190.06	-68.0428	-46.0958	184.842	-67.4031	-79.517	160.224	-67.4252	-14.8261	135.61	-44.9807	-21.7759	128.218	-23.7248	3.57252	141.854	-76.4907	-2.46441	127.403	-51.7529	-7.1945	127.818	-30.0822	17.2427	170.559	-71.6032	46.4922	156.247	-63.2053	78.074	187.945	-39.2203	61.0855	
155	1.29167	164.062	-2.10909	50.3807	170.747	-2.58976	9.61457	177.447	-22.4847	-15.6441	171.294	-45.8795	-27.2025	219.482	-44.6545	-5.34647	230.256	-55.4295	-26.0386	240.557	-65.549	-41.2257	199.923	-59.9171	-21.5902	194.078	-62.8355	-49.3151	188.93	-61.4102	-79.9274	161.998	-65.306	-13.7917	135.858	-41.6965	-21.6265	126.622	-24.4313	6.89898	147.262	-75.9277	-2.84326	128.098	-49.7435	-5.8783	130.278	-29.9068	20.1781	175.159	-72.6363	44.1428	158.613	-61.4078	77.0241	184.986	-35.4376	61.469	
156	1.3	162.707	2.09048	48.7149	164.549	1.5964	11.422	173.165	-16.3238	-13.2955	172.325	-37.9029	-30.1995	220.747	-32.8352	-6.0119	233.439	-43.1521	-26.4727	243.104	-53.6187	-43.5438	200.27	-54.6256	-21.7641	198.854	-51.103	-45.8868	190.329	-56.2835	-80.5547	165.886	-56.7078	-19.159	137.796	-36.623	-21.4508	126.972	-23.7298	6.19155	150.53	-73.2798	-4.23961	134.121	-49.3134	-7.4736	130.825	-29.7074	21.0732	179.702	-66.4821	42.056	162.816	-57.1346	75.9443	187.632	-32.2218	61.0128	
157	1.30833	156.774	6.28117	48.68	165.187	3.20987	7.85521	174.834	-13.0928	-16.6148	174.059	-36.8483	-29.8761	216.767	-23.5752	-5.73249	231.785	-28.0561	-27.3019	245.896	-40.6469	-47.7555	203.246	-44.3441	-25.5856	198.157	-46.0602	-52.2136	192.249	-48.8765	-82.2015	166.955	-56.6525	-18.133	139.816	-38.2964	-24.7976	122.829	-27.6885	3.35788	154.625	-71.3984	-6.71397	135.854	-48.7943	-9.12802	131.304	-31.313	16.708	181.767	-61.1222	45.026	167.765	-54.1881	76.6971	187.037	-22.9886	58.6672	
158	1.31667	155.162	5.36626	44.6707	156.249	8.0279	7.90092	169.134	-9.7123	-16.6524	173.467	-32.5653	-34.8479	215.977	-15.2682	-9.73027	227.054	-16.1892	-28.2997	242.732	-29.4102	-48.8604	202.332	-38.3509	-24.4845	198.378	-37.7123	-51.5182	191.517	-41.6474	-82.2006	170.048	-51.276	-20.3485	140.357	-38.4125	-25.7262	122.433	-25.3633	3.73356	158.307	-70.1934	-8.58893	136.585	-47.5517	-8.45556	130.688	-34.2728	18.3042	187.59	-56.8858	38.4298	170.45	-51.0118	71.0984	185.741	-17.5624	55.8021	
